{
  "accessors": [
    {
      "bufferView": 2,
      "componentType": 5126,
      "count": 616,
      "max": [
        0.49630400538444519,
        1,
        0.55325502157211304
      ],
      "min": [
        -0.49630400538444519,
        -1,
        -0.55325502157211304
      ],
      "type": "VEC3"
    },
    {
      "bufferView": 2,
      "byteOffset": 7392,
      "componentType": 5126,
      "count": 616,
      "max": [
        1,
        1,
        1
      ],
      "min": [
        -1,
        -1,
        -0.99997186660766602
      ],
      "type": "VEC3"
    },
    {
      "bufferView": 3,
      "componentType": 5126,
      "count": 616,
      "max": [
        1,
        1,
        1,
        1
      ],
      "min": [
        -1,
        -0.99945700168609619,
        -1,
        1
      ],
      "type": "VEC4"
    },
    {
      "bufferView": 1,
      "componentType": 5126,
      "count": 616,
      "max": [
        0.99900001287460327,
        0.89079999923706055
      ],
      "min": [
        0.0010000000474974513,
        0.0010000000474974513
      ],
      "type": "VEC2"
    },
    {
      "bufferView": 0,
      "componentType": 5125,
      "count": 2220,
      "max": [
        615
      ],
      "min": [
        0
      ],
      "type": "SCALAR"
    }
  ],
  "asset": {
    "extras": {
      "author": "vegu (https://sketchfab.com/iamvegu)",
      "license": "CC-BY-NC-4.0 (http://creativecommons.org/licenses/by-nc/4.0/)",
      "source": "https://sketchfab.com/models/6f830f949d224603bd37c90a190945ae",
      "title": "Chair"
    },
    "generator": "Sketchfab-3.19.6",
    "version": "2.0"
  },
  "bufferViews": [
    {
      "buffer": 0,
      "byteLength": 8880,
      "byteOffset": 0,
      "name": "floatBufferViews",
      "target": 34963
    },
    {
      "buffer": 0,
      "byteLength": 4928,
      "byteOffset": 8880,
      "byteStride": 8,
      "name": "floatBufferViews",
      "target": 34962
    },
    {
      "buffer": 0,
      "byteLength": 14784,
      "byteOffset": 13808,
      "byteStride": 12,
      "name": "floatBufferViews",
      "target": 34962
    },
    {
      "buffer": 0,
      "byteLength": 9856,
      "byteOffset": 28592,
      "byteStride": 16,
      "name": "floatBufferViews",
      "target": 34962
    }
  ],
  "buffers": [
    {
      "byteLength": 38448,
      "uri": "scene.bin"
    }
  ],
  "images": [
    {
      "uri": "textures/None_metallicRoughness.png"
    },
    {
      "uri": "textures/None_normal.jpeg"
    },
    {
      "uri": "textures/None_baseColor.jpeg"
    }
  ],
  "materials": [
    {
      "doubleSided": true,
      "emissiveFactor": [
        0,
        0,
        0
      ],
      "name": "None",
      "normalTexture": {
        "index": 1,
        "scale": 1,
        "texCoord": 0
      },
      "occlusionTexture": {
        "index": 0,
        "strength": 1,
        "texCoord": 0
      },
      "pbrMetallicRoughness": {
        "baseColorFactor": [
          1,
          1,
          1,
          1
        ],
        "baseColorTexture": {
          "index": 2,
          "texCoord": 0
        },
        "metallicFactor": 1,
        "metallicRoughnessTexture": {
          "index": 0,
          "texCoord": 0
        },
        "roughnessFactor": 1
      }
    }
  ],
  "meshes": [
    {
      "name": "defaultMaterial",
      "primitives": [
        {
          "attributes": {
            "NORMAL": 1,
            "POSITION": 0,
            "TANGENT": 2,
            "TEXCOORD_0": 3
          },
          "indices": 4,
          "material": 0,
          "mode": 4
        }
      ]
    }
  ],
  "nodes": [
    {
      "children": [
        1
      ],
      "name": "RootNode (gltf orientation matrix)",
      "rotation": [
        -0.70710678118654746,
        -0,
        -0,
        0.70710678118654757
      ]
    },
    {
      "children": [
        2
      ],
      "name": "RootNode (model correction matrix)"
    },
    {
      "children": [
        3
      ],
      "matrix": [
        1,
        0,
        0,
        0,
        0,
        -4.3711390063094768e-08,
        0.999999999999999,
        0,
        0,
        -0.999999999999999,
        -4.3711390063094768e-08,
        0,
        0,
        0,
        0,
        1
      ],
      "name": "Collada visual scene group"
    },
    {
      "children": [
        4
      ],
      "name": "Cube"
    },
    {
      "mesh": 0,
      "name": "defaultMaterial"
    }
  ],
  "samplers": [
    {
      "magFilter": 9729,
      "minFilter": 9987,
      "wrapS": 10497,
      "wrapT": 10497
    }
  ],
  "scene": 0,
  "scenes": [
    {
      "name": "OSG_Scene",
      "nodes": [
        0
      ]
    }
  ],
  "textures": [
    {
      "sampler": 0,
      "source": 0
    },
    {
      "sampler": 0,
      "source": 1
    },
    {
      "sampler": 0,
      "source": 2
    }
  ]
}

