{
  "accessors": [
    {
      "bufferView": 2,
      "componentType": 5126,
      "count": 6318,
      "max": [
        0.75093203783035278,
        0.68621230125427246,
        -1.5802677869796753
      ],
      "min": [
        -0.57788872718811035,
        -0.62692409753799438,
        -2.3765604496002197
      ],
      "type": "VEC3"
    },
    {
      "bufferView": 2,
      "byteOffset": 75816,
      "componentType": 5126,
      "count": 6318,
      "max": [
        0.99947106838226318,
        0.99966061115264893,
        0.99899071455001831
      ],
      "min": [
        -0.99925112724304199,
        -0.99979788064956665,
        -1
      ],
      "type": "VEC3"
    },
    {
      "bufferView": 3,
      "componentType": 5126,
      "count": 6318,
      "max": [
        0.76224905252456665,
        0.9999966025352478,
        0.99172443151473999,
        1
      ],
      "min": [
        -0.6999056339263916,
        -0.9928087592124939,
        -0.99999338388442993,
        1
      ],
      "type": "VEC4"
    },
    {
      "bufferView": 1,
      "componentType": 5126,
      "count": 6318,
      "max": [
        0.70305049419403076,
        1
      ],
      "min": [
        0,
        0
      ],
      "type": "VEC2"
    },
    {
      "bufferView": 0,
      "componentType": 5125,
      "count": 36456,
      "max": [
        6317
      ],
      "min": [
        0
      ],
      "type": "SCALAR"
    }
  ],
  "asset": {
    "extras": {
      "author": "AleixoAlonso (https://sketchfab.com/AleixoAlonso)",
      "license": "CC-BY-4.0 (http://creativecommons.org/licenses/by/4.0/)",
      "source": "https://sketchfab.com/3d-models/simple-bean-bag-64d111cec3d842f09cbb8c68b1e49c8d",
      "title": "Simple Bean Bag"
    },
    "generator": "Sketchfab-10.29.0",
    "version": "2.0"
  },
  "bufferViews": [
    {
      "buffer": 0,
      "byteLength": 145824,
      "byteOffset": 0,
      "name": "floatBufferViews",
      "target": 34963
    },
    {
      "buffer": 0,
      "byteLength": 50544,
      "byteOffset": 145824,
      "byteStride": 8,
      "name": "floatBufferViews",
      "target": 34962
    },
    {
      "buffer": 0,
      "byteLength": 151632,
      "byteOffset": 196368,
      "byteStride": 12,
      "name": "floatBufferViews",
      "target": 34962
    },
    {
      "buffer": 0,
      "byteLength": 101088,
      "byteOffset": 348000,
      "byteStride": 16,
      "name": "floatBufferViews",
      "target": 34962
    }
  ],
  "buffers": [
    {
      "byteLength": 449088,
      "uri": "scene.bin"
    }
  ],
  "images": [
    {
      "uri": "textures/A_Bean_Bag_baseColor.png"
    },
    {
      "uri": "textures/A_Bean_Bag_metallicRoughness.png"
    },
    {
      "uri": "textures/A_Bean_Bag_normal.png"
    }
  ],
  "materials": [
    {
      "doubleSided": true,
      "emissiveFactor": [
        0,
        0,
        0
      ],
      "name": "A_Bean_Bag",
      "normalTexture": {
        "index": 2,
        "scale": 1,
        "texCoord": 0
      },
      "occlusionTexture": {
        "index": 1,
        "strength": 1,
        "texCoord": 0
      },
      "pbrMetallicRoughness": {
        "baseColorFactor": [
          1,
          1,
          1,
          1
        ],
        "baseColorTexture": {
          "index": 0,
          "texCoord": 0
        },
        "metallicFactor": 1,
        "metallicRoughnessTexture": {
          "index": 1,
          "texCoord": 0
        },
        "roughnessFactor": 1
      }
    }
  ],
  "meshes": [
    {
      "name": "Cube_A_Bean_Bag_0",
      "primitives": [
        {
          "attributes": {
            "NORMAL": 1,
            "POSITION": 0,
            "TANGENT": 2,
            "TEXCOORD_0": 3
          },
          "indices": 4,
          "material": 0,
          "mode": 4
        }
      ]
    }
  ],
  "nodes": [
    {
      "children": [
        1
      ],
      "name": "RootNode (gltf orientation matrix)",
      "rotation": [
        -0.70710678118654746,
        -0,
        -0,
        0.70710678118654757
      ]
    },
    {
      "children": [
        2
      ],
      "matrix": [
        -0.0051856148056685925,
        0.99998652935028076,
        0,
        0,
        -0.99998652935028076,
        -0.0051856148056685925,
        0,
        0,
        0,
        0,
        1,
        0,
        0.93329060077667236,
        -1.4280962944030762,
        -1.8726105110999924e-09,
        1
      ],
      "name": "RootNode (model correction matrix)"
    },
    {
      "children": [
        3
      ],
      "matrix": [
        1,
        0,
        0,
        0,
        0,
        0,
        1,
        0,
        0,
        -1,
        0,
        0,
        0,
        0,
        0,
        1
      ],
      "name": "#CHR0001_Bean_Bag.fbx"
    },
    {
      "children": [
        4
      ],
      "name": "RootNode"
    },
    {
      "children": [
        5
      ],
      "matrix": [
        0.59397443378977222,
        -1.7737617686778797e-17,
        0.23579330151950548,
        0,
        0.23579330151950526,
        -2.7934420539335158e-08,
        -0.59397443378977166,
        0,
        1.0306852957049444e-08,
        0.63906502723693781,
        -2.5963448105890252e-08,
        0,
        1.1164523363113403,
        1.5206006765365601,
        0.24773579835891724,
        1
      ],
      "name": "Cube"
    },
    {
      "mesh": 0,
      "name": "Cube_A_Bean_Bag_0"
    }
  ],
  "samplers": [
    {
      "magFilter": 9729,
      "minFilter": 9987,
      "wrapS": 10497,
      "wrapT": 10497
    }
  ],
  "scene": 0,
  "scenes": [
    {
      "name": "OSG_Scene",
      "nodes": [
        0
      ]
    }
  ],
  "textures": [
    {
      "sampler": 0,
      "source": 0
    },
    {
      "sampler": 0,
      "source": 1
    },
    {
      "sampler": 0,
      "source": 2
    }
  ]
}

